<?xml version="1.0" encoding="UTF-8" standalone="no"?>
<!-- Created with Inkscape (http://www.inkscape.org/) -->

<svg
   width="340.45291"
   height="297.81332"
   viewBox="0 0 90.078162 78.796444"
   version="1.1"
   id="svg5"
   inkscape:version="1.2.1 (9c6d41e410, 2022-07-14)"
   sodipodi:docname="Logo.svg"
   xml:space="preserve"
   xmlns:inkscape="http://www.inkscape.org/namespaces/inkscape"
   xmlns:sodipodi="http://sodipodi.sourceforge.net/DTD/sodipodi-0.dtd"
   xmlns="http://www.w3.org/2000/svg"
   xmlns:svg="http://www.w3.org/2000/svg"><sodipodi:namedview
     id="namedview7"
     pagecolor="#ffffff"
     bordercolor="#000000"
     borderopacity="0.25"
     inkscape:showpageshadow="2"
     inkscape:pageopacity="0.0"
     inkscape:pagecheckerboard="0"
     inkscape:deskcolor="#d1d1d1"
     inkscape:document-units="mm"
     showgrid="false"
     inkscape:zoom="1.4912879"
     inkscape:cx="225.30861"
     inkscape:cy="164.28753"
     inkscape:window-width="1920"
     inkscape:window-height="1017"
     inkscape:window-x="-8"
     inkscape:window-y="-8"
     inkscape:window-maximized="1"
     inkscape:current-layer="layer1" /><defs
     id="defs2" /><g
     inkscape:label="Capa 1"
     inkscape:groupmode="layer"
     id="layer1"
     transform="translate(-87.856656,-6.1855434)"><path
       style="fill:#f6f5f4;stroke-width:0.264583"
       d="M 119.12876,84.441319 C 118.13874,83.932221 115.43222,80.823732 103.06491,65.99167 89.438491,49.649556 88.174743,48.052622 87.989527,46.941671 87.712858,45.28217 87.848835,44.367267 88.58134,42.959734 c 0.34331,-0.65968 7.089033,-8.938479 14.9905,-18.397333 15.99535,-19.148062 15.34897,-18.503142 18.37035,-18.328761 2.01559,0.116332 3.4682,0.997641 4.47445,2.7146674 0.9209,1.5714076 0.98095,3.8963386 0.13754,5.3257976 -0.31074,0.526677 -5.11492,6.425927 -10.67593,13.109442 -5.56102,6.683518 -10.15019,12.264183 -10.19816,12.401481 -0.0543,0.155387 12.88835,0.275709 34.28291,0.318709 l 34.37013,0.06908 1.09048,0.72168 c 3.34826,2.215875 3.34826,7.188681 0,9.404556 l -1.09048,0.72168 -34.37013,0.06908 c -21.39456,0.043 -34.3372,0.163322 -34.28291,0.318709 0.048,0.137298 4.67112,5.751436 10.27367,12.475866 5.60255,6.724427 10.40747,12.642548 10.6776,13.151378 0.77015,1.450721 0.68485,3.674467 -0.19879,5.182283 -1.02158,1.743207 -2.46572,2.625005 -4.49038,2.741861 -1.30066,0.07507 -1.85916,-0.02788 -2.81343,-0.518591 z"
       id="path1056" /></g></svg>
